<svg width="48" height="46" viewBox="0 0 48 46" fill="none" xmlns="http://www.w3.org/2000/svg">
<path d="M43.2328 14.8823V1.20544L32.5945 7.34747C29.9415 6.42882 27.0405 5.92144 24 5.92144C20.9595 5.92144 18.0584 6.42882 15.4055 7.34747L4.76719 1.20544V14.8821C2.49094 17.9052 1.17084 21.5003 1.17084 25.3578C1.17084 36.0922 11.3918 44.7941 23.9999 44.7941C36.608 44.7941 46.829 36.0922 46.829 25.3578C46.8291 21.5003 45.5092 17.9053 43.2328 14.8823Z" fill="#FFBB55"/>
<path d="M27.2134 28.3687L25.5585 30.766C24.8056 31.8565 23.1943 31.8565 22.4414 30.766L20.7865 28.3687C20.3298 27.707 20.8034 26.8045 21.6074 26.8045H26.3925C27.1965 26.8044 27.6701 27.707 27.2134 28.3687Z" fill="#A18671"/>
<path d="M48 25.3579C48 21.4996 46.7578 17.753 44.4037 14.497V1.20563C44.4037 0.787316 44.1805 0.400785 43.8182 0.191629C43.4559 -0.0175274 43.0096 -0.0175274 42.6473 0.191629L32.466 6.06985C29.7615 5.19432 26.9163 4.75078 23.9999 4.75078C21.0835 4.75078 18.2383 5.19432 15.5338 6.06985L5.35256 0.191535C4.99031 -0.0176211 4.54397 -0.0176211 4.18172 0.191535C3.81947 0.400691 3.59625 0.787129 3.59625 1.20554V14.4971C1.24219 17.753 0 21.4997 0 25.3579C0 30.8983 2.52084 36.0957 7.09838 39.993C11.6218 43.8443 17.6243 45.9652 24.0001 45.9652C30.3759 45.9652 36.3784 43.8443 40.9018 39.993C45.4792 36.0959 48 30.8984 48 25.3579ZM24.0001 43.6234C12.0577 43.6234 2.34178 35.4295 2.34178 25.3579C2.34178 21.8853 3.504 18.5063 5.70262 15.5864C5.85553 15.3835 5.93822 15.1362 5.93822 14.8822V3.23354L14.8202 8.36157C15.1143 8.53144 15.4678 8.5651 15.7887 8.4541C18.398 7.55063 21.1607 7.09247 24.0001 7.09247C26.8395 7.09247 29.6022 7.55063 32.2115 8.4541C32.5323 8.56519 32.8858 8.53154 33.18 8.36157L42.062 3.23354V14.8823C42.062 15.1363 42.1447 15.3836 42.2976 15.5865C44.4962 18.5064 45.6584 21.8853 45.6584 25.358C45.6583 35.4295 35.9424 43.6234 24.0001 43.6234Z" fill="#231F20"/>
<path d="M16.3605 19.5123C17.0071 19.5123 17.5313 18.9881 17.5313 18.3414C17.5313 17.6948 17.0071 17.1706 16.3605 17.1706C15.7139 17.1706 15.1897 17.6948 15.1897 18.3414C15.1897 18.9881 15.7139 19.5123 16.3605 19.5123Z" fill="#231F20"/>
<path d="M31.6403 19.5123C32.287 19.5123 32.8112 18.9881 32.8112 18.3414C32.8112 17.6948 32.287 17.1706 31.6403 17.1706C30.9937 17.1706 30.4695 17.6948 30.4695 18.3414C30.4695 18.9881 30.9937 19.5123 31.6403 19.5123Z" fill="#231F20"/>
<path d="M38.5493 13.5212C39.196 13.5212 39.7202 12.997 39.7202 12.3503V9.31744C39.7202 8.67075 39.196 8.1466 38.5493 8.1466C37.9027 8.1466 37.3785 8.67075 37.3785 9.31744V12.3503C37.3785 12.997 37.9027 13.5212 38.5493 13.5212Z" fill="#231F20"/>
<path d="M9.45066 13.5212C10.0973 13.5212 10.6215 12.997 10.6215 12.3503V9.31744C10.6215 8.67075 10.0973 8.1466 9.45066 8.1466C8.80397 8.1466 8.27981 8.67075 8.27981 9.31744V12.3503C8.27981 12.997 8.80397 13.5212 9.45066 13.5212Z" fill="#231F20"/>
<path d="M14.6204 24.6932L9.07716 23.2492C8.45138 23.0866 7.81191 23.4613 7.64897 24.087C7.48594 24.7129 7.86113 25.3523 8.48681 25.5152L14.0301 26.9592C14.129 26.985 14.2283 26.9973 14.326 26.9973C14.8462 26.9973 15.321 26.6482 15.4583 26.1214C15.6212 25.4957 15.2461 24.8562 14.6204 24.6932Z" fill="#231F20"/>
<path d="M14.0301 29.3768L8.48681 30.8208C7.86113 30.9839 7.48594 31.6233 7.64897 32.249C7.78622 32.7758 8.26106 33.1249 8.78119 33.1249C8.87888 33.1249 8.97825 33.1126 9.07716 33.0868L14.6204 31.6428C15.2461 31.4797 15.6213 30.8403 15.4583 30.2146C15.2951 29.5886 14.6557 29.2136 14.0301 29.3768Z" fill="#231F20"/>
<path d="M38.9229 23.2492L33.3796 24.6932C32.7539 24.8563 32.3787 25.4957 32.5418 26.1214C32.679 26.6483 33.1538 26.9973 33.674 26.9973C33.7717 26.9973 33.871 26.985 33.9699 26.9592L39.5132 25.5152C40.1389 25.3521 40.5141 24.7127 40.351 24.087C40.1881 23.4613 39.5487 23.0862 38.9229 23.2492Z" fill="#231F20"/>
<path d="M39.5132 30.8208L33.9699 29.3768C33.3441 29.2134 32.7048 29.5888 32.5417 30.2146C32.3788 30.8403 32.7539 31.4799 33.3796 31.6428L38.9229 33.0868C39.0219 33.1126 39.121 33.1249 39.2188 33.1249C39.7389 33.1249 40.2138 32.7758 40.351 32.249C40.5142 31.6233 40.1389 30.9837 39.5132 30.8208Z" fill="#231F20"/>
<path d="M30.2446 34.5501H28.137C26.8072 34.5501 25.679 33.6704 25.3036 32.4624C25.7867 32.2352 26.2097 31.8833 26.522 31.4311L28.1768 29.0337C28.6362 28.3683 28.6881 27.5102 28.3123 26.7942C27.9366 26.0783 27.2009 25.6335 26.3924 25.6335H21.6075C20.799 25.6335 20.0633 26.0782 19.6876 26.7942C19.3118 27.5102 19.3637 28.3684 19.8231 29.0337L21.4779 31.4311C21.7901 31.8833 22.2131 32.2351 22.6963 32.4624C22.3209 33.6704 21.1928 34.5501 19.8629 34.5501H17.7553C17.1086 34.5501 16.5845 35.0742 16.5845 35.7209C16.5845 36.3676 17.1086 36.8918 17.7553 36.8918H19.8629C21.534 36.8918 23.0263 36.1148 23.9999 34.9039C24.9736 36.1148 26.4659 36.8918 28.1369 36.8918H30.2445C30.8912 36.8918 31.4153 36.3676 31.4153 35.7209C31.4153 35.0742 30.8913 34.5501 30.2446 34.5501ZM24.0001 30.4131C23.8861 30.4131 23.5997 30.3826 23.4051 30.1008L21.9379 27.9755H26.0622L24.595 30.1008C24.4004 30.3826 24.1141 30.4131 24.0001 30.4131Z" fill="#231F20"/>
</svg>
