<svg width="48" height="49" viewBox="0 0 48 49" fill="none" xmlns="http://www.w3.org/2000/svg">
<path d="M47.8307 17.8605C47.6338 17.3372 47.1086 16.7811 46.6771 16.6285C46.5083 16.5631 45.5423 16.3995 44.5387 16.2796C43.5352 16.1488 42.7005 16.0179 42.6817 15.9634C42.5504 15.5164 41.8282 14.328 41.3124 13.6848C39.9431 12.0058 37.9078 10.8283 35.6944 10.4467L35.2536 10.3704V9.23655C35.2536 8.6151 35.2442 8.06997 35.2349 8.02636C35.2255 7.97185 35.8914 7.54665 36.7167 7.06693C37.5421 6.58722 38.3299 6.10751 38.4518 6.00938C38.7613 5.75862 39.0802 5.09357 39.1552 4.54844C39.3241 3.31645 38.3862 2.00814 37.317 1.99724C37.1388 1.99724 36.0133 2.2698 34.8316 2.61868L32.665 3.24013L32.1117 2.79312C30.9768 1.89911 29.6638 1.28857 28.2007 0.961492C26.7657 0.645317 24.027 0.776148 23.4549 1.20135C22.9954 1.53933 23.0047 2.31341 23.4737 2.56417C23.6519 2.65139 23.8864 2.65139 24.4116 2.55327C25.4057 2.36792 27.1971 2.38973 28.0787 2.59688C30.3484 3.14201 32.2993 4.59205 33.1996 6.41278C33.3497 6.70715 33.5654 7.29589 33.6686 7.69928C33.8655 8.45156 33.8749 9.30196 33.6967 10.9592C33.6123 11.7005 33.7999 11.875 34.794 11.9731C38.7426 12.3656 41.7344 15.2875 41.7251 18.7218C41.7157 20.3681 41.2936 21.491 40.1869 22.7666C39.7649 23.2464 39.2303 23.8024 38.9864 23.9986C38.5737 24.3148 38.5362 24.3802 38.5362 24.7836C38.5362 25.187 38.5737 25.2524 38.9864 25.5686C39.2303 25.7648 39.7649 26.3209 40.1775 26.8006C41.2936 28.0871 41.7157 29.2101 41.7251 30.8454C41.7251 33.1786 40.3182 35.3918 38.0485 36.6129C37.12 37.1035 36.1821 37.3979 34.991 37.5614C33.7717 37.725 33.6123 37.8558 33.6967 38.6081C33.8749 40.2653 33.8655 41.1157 33.6686 41.868C33.2653 43.3834 32.515 44.4846 31.2019 45.4985C29.7294 46.6215 28.1256 47.1448 26.1561 47.1448C24.1115 47.1448 23.2111 46.8395 20.4255 45.1714C14.4699 41.6281 8.63625 39.8183 2.55871 39.6438L0.392183 39.5784L0.195226 39.8401C-0.208067 40.3416 0.0451636 41.0721 0.664172 41.1811C0.832992 41.2138 1.79902 41.2574 2.80256 41.2901C7.03245 41.41 11.6844 42.5766 16.1206 44.6481C16.7678 44.9425 18.4372 45.8474 19.8253 46.6542C22.6483 48.2896 23.4737 48.6057 25.19 48.7475C27.7505 48.9546 30.0296 48.3332 31.9616 46.8831L32.6463 46.3598L34.7847 46.9595C35.9664 47.2974 37.0919 47.57 37.2888 47.57C38.3862 47.5591 39.3241 46.2726 39.1552 45.0188C39.0802 44.4737 38.7613 43.8086 38.4518 43.5578C38.3299 43.4597 37.5421 42.98 36.7167 42.5003C35.8914 42.0206 35.2255 41.5954 35.2349 41.5518C35.2442 41.4973 35.2536 40.9521 35.2536 40.3307V39.1968L35.6569 39.1205C37.9454 38.7171 39.9337 37.5723 41.3124 35.8824C41.8282 35.2392 42.5504 34.0508 42.6817 33.6038C42.7005 33.5493 43.5352 33.4185 44.5387 33.2876C46.6302 33.026 46.8647 32.9605 47.3243 32.4917C48.3372 31.456 48.1871 29.6571 47.0335 28.8721C46.6865 28.6322 46.3864 28.5668 44.7169 28.3706C42.5692 28.1198 42.7474 28.207 42.194 27.0623C42.0158 26.6807 41.5562 26.0156 41.1811 25.5795L40.5058 24.7836L41.1811 23.9877C41.5562 23.5407 42.0158 22.8757 42.194 22.505C42.7474 21.3602 42.5692 21.4474 44.7169 21.1967C46.3864 21.0004 46.6865 20.935 47.0335 20.6952C47.8964 20.1064 48.234 18.8962 47.8307 17.8605ZM46.452 19.1579C46.2738 19.3759 46.1613 19.3977 44.8201 19.5504C44.2292 19.6158 43.6008 19.6921 43.4414 19.7248L43.1319 19.7793V18.7872C43.1319 17.6315 42.9349 17.7187 44.942 17.9804C46.3489 18.1549 46.6021 18.2748 46.6021 18.7436C46.6021 18.8744 46.5364 19.0707 46.452 19.1579ZM46.4333 31.2488C46.3207 31.3688 45.8612 31.4778 44.942 31.5868C42.9349 31.8485 43.1319 31.9357 43.1319 30.78V29.7879L43.4414 29.8424C43.6008 29.8751 44.2292 29.9514 44.8201 30.0169C45.411 30.0823 45.9925 30.1586 46.105 30.1913C46.574 30.3003 46.7615 30.9109 46.4333 31.2488ZM37.6265 4.63566C37.5327 4.73378 36.8574 5.15898 36.1258 5.58418L34.8034 6.34736L34.5408 5.83494C34.4095 5.55148 34.1844 5.15898 34.0625 4.96274C33.8937 4.70108 33.8655 4.60295 33.9593 4.55934C34.3063 4.41761 37.1481 3.63262 37.3076 3.63262C37.5139 3.63262 37.7859 4.01421 37.7859 4.29768C37.7859 4.3958 37.7109 4.54844 37.6265 4.63566ZM37.6359 45.6948C37.5608 45.8365 37.392 45.9346 37.2607 45.9346C37.0544 45.9346 33.9406 45.0733 33.8562 44.997C33.8374 44.9752 33.9218 44.8007 34.0531 44.6045C34.1844 44.4082 34.4001 44.0158 34.5408 43.7323L34.8034 43.2199L36.1915 44.0267C37.7953 44.9643 37.9641 45.1605 37.6359 45.6948Z" fill="#FFBB55"/>
<path d="M39.0521 17.6752C38.7144 16.6285 38.0485 15.8436 36.9887 15.2439C36.0039 14.677 35.2817 14.4916 34.0343 14.4916C32.1586 14.4916 30.883 15.0259 29.8045 16.2797C29.3261 16.8248 29.1479 17.1301 29.0166 17.588C28.4726 19.485 29.2323 21.2294 31.0612 22.2652C33.8937 23.8788 37.739 22.8539 38.9208 20.1828C39.1834 19.594 39.2584 18.2748 39.0521 17.6752ZM37.4389 19.8557C37.1106 20.3354 36.3228 20.9133 35.6757 21.1422C34.8597 21.4366 33.5373 21.4693 32.6369 21.1967C31.7178 20.9351 31.1925 20.5971 30.7236 19.9974C28.9135 17.6643 32.5712 15.1567 35.882 16.4541C36.5479 16.7158 37.2888 17.3263 37.5608 17.8387C37.8891 18.4711 37.8422 19.267 37.4389 19.8557Z" fill="#FFBB55"/>
<path d="M39.1083 29.9078C38.6113 28.0326 36.7355 26.7025 34.4095 26.5607C31.3989 26.3754 28.8666 28.2615 28.8478 30.7037C28.8384 31.794 29.0823 32.459 29.8045 33.2876C30.808 34.4542 32.1211 35.0429 33.7342 35.0756C34.4564 35.0865 34.5314 35.0647 34.7003 34.8249C34.9441 34.4869 34.9253 34.029 34.6721 33.7564C34.5033 33.582 34.2688 33.5166 33.6873 33.4621C31.4458 33.2549 29.9545 31.903 30.2922 30.3984C30.4328 29.777 31.2207 28.9157 31.9335 28.6104C32.7588 28.2397 33.4247 28.1307 34.3626 28.1961C35.3568 28.2615 35.957 28.4578 36.6511 28.9484C37.3545 29.4499 37.7109 29.9841 37.7672 30.6492C37.8141 31.3143 37.6546 31.7067 37.0262 32.4154C36.773 32.6989 36.5667 33.0151 36.5667 33.1023C36.5667 33.7128 37.0731 34.1489 37.5421 33.9418C37.9923 33.7455 38.7801 32.7098 38.9958 32.0338C39.1928 31.4124 39.249 30.442 39.1083 29.9078Z" fill="#FFBB55"/>
<path d="M31.0987 8.48431C30.883 7.74294 30.6861 7.38315 30.189 6.87073C29.0354 5.66055 27.0377 5.39889 25.04 6.19477C22.4139 7.23052 20.7069 9.80353 21.1759 11.9949C21.7667 14.7315 25.1338 15.6691 28.1725 13.9247C29.4574 13.1942 30.5548 11.9295 30.9393 10.7302C31.1925 9.96706 31.2488 9.04034 31.0987 8.48431ZM29.5231 10.4141C29.1948 11.1554 28.3976 11.9731 27.5348 12.4529C26.55 12.998 25.9216 13.1724 24.9368 13.1615C22.8172 13.1397 21.9074 11.5806 22.9766 9.78172C23.5112 8.87681 24.6461 8.0155 25.8278 7.6012C26.6719 7.30684 28.0318 7.32864 28.6415 7.64482C29.7669 8.24446 30.0671 9.17118 29.5231 10.4141Z" fill="#FFBB55"/>
<path d="M31.08 39.2841C30.536 37.0381 28.3038 35.1629 25.6777 34.7813C24.2334 34.5741 22.789 35.0539 21.9637 36.0133C21.3447 36.722 21.1383 37.3216 21.1383 38.3682C21.1383 39.1532 21.1759 39.3168 21.4854 40.069C22.095 41.4973 23.4268 42.7402 25.04 43.3725C27.0564 44.1793 29.0541 43.8958 30.2265 42.653C31.0612 41.7698 31.3707 40.527 31.08 39.2841ZM29.6825 40.8431C29.5137 41.301 29.2136 41.6172 28.6415 41.9225C28.0318 42.2387 26.6719 42.2605 25.8278 41.9661C24.6461 41.5518 23.5112 40.6905 22.9766 39.7856C21.9074 37.9867 22.8172 36.4276 24.9368 36.4058C25.8747 36.4058 26.5218 36.5693 27.4222 37.049C28.5571 37.6487 29.3637 38.5536 29.6825 39.5784C29.842 40.1127 29.842 40.407 29.6825 40.8431Z" fill="#FFBB55"/>
<path d="M26.2967 22.4941C26.1092 21.4911 25.6496 21.0768 25.1244 21.4038C24.768 21.6219 24.7305 21.8945 24.8993 22.7776C25.0118 23.399 25.04 23.9659 25.0118 25.1434C24.9837 26.5608 24.9556 26.7461 24.7117 27.3676C24.3928 28.1743 23.6519 29.0465 22.9954 29.3845C22.7515 29.5045 22.3013 29.6353 21.9918 29.6571C21.3447 29.7116 13.7478 28.883 13.1663 28.6977C12.5379 28.5014 11.7313 27.9454 11.328 27.433C9.64917 25.307 10.3807 22.0035 12.7817 20.9459C13.1288 20.7824 14.2261 20.6298 17.1054 20.3027C21.3916 19.8339 22.0575 19.8012 22.7703 20.0519C23.408 20.27 23.68 20.1828 23.8676 19.7248C24.0083 19.3978 24.0083 19.3433 23.8676 19.0271C23.7363 18.7436 23.605 18.6455 23.0423 18.4492C22.4326 18.2312 22.2451 18.2203 20.932 18.2748L19.497 18.3511L19.4408 18.0459C19.1875 16.7375 18.9812 16.2142 17.9776 14.3499C17.0585 12.6382 16.5521 12.0167 15.708 11.5261C13.0443 9.99975 10.015 11.7551 9.53663 15.1131C9.33029 16.574 9.78048 18.1549 10.7277 19.2887L11.2248 19.8775L10.5027 20.717C9.72421 21.6437 9.36781 22.3633 9.13333 23.4971C8.73004 25.4814 9.22712 27.3676 10.5496 28.8721L11.2155 29.6462L10.6809 30.3112C9.53663 31.7286 9.19899 33.5602 9.74296 35.4137C10.2776 37.2235 11.675 38.4119 13.4664 38.5972C14.0948 38.6517 14.1511 38.6408 14.3761 38.3792C14.6669 38.0412 14.6857 37.6705 14.4324 37.2998C14.2824 37.0708 14.1511 37.0163 13.6165 36.9727C12.4722 36.8746 11.6375 36.2641 11.1779 35.1629C10.8122 34.2907 10.8122 33.1677 11.1686 32.3064C11.4781 31.5759 12.0502 30.8782 12.566 30.6165C12.9412 30.4094 12.9974 30.4203 15.4735 30.6819C16.8616 30.8346 18.0152 30.9872 18.0433 31.009C18.109 31.0962 17.8557 32.1102 17.6213 32.6335C17.5087 32.9061 17.096 33.7019 16.7209 34.3997C16.3363 35.0975 16.0268 35.7843 16.0268 35.9043C16.0268 36.5039 16.5052 36.8855 16.9835 36.6565C17.1711 36.5693 17.4618 36.1223 18.0339 35.043C19.0281 33.1677 19.0937 33.0151 19.3188 32.012C19.4126 31.5541 19.5064 31.1726 19.5252 31.1616C19.5346 31.1507 20.0691 31.1835 20.7069 31.2489C22.0856 31.3906 22.7797 31.2816 23.6519 30.8019C24.8524 30.1477 25.659 29.1229 26.1279 27.6619C26.3436 26.986 26.3718 26.7243 26.3999 25.0562C26.4281 23.7152 26.3999 23.0065 26.2967 22.4941ZM17.9776 18.5692C17.912 18.5692 16.8053 18.6891 15.5298 18.8308C13.4476 19.0707 13.1569 19.0816 12.7536 18.9508C12.1252 18.7218 11.5906 18.144 11.2248 17.2827C10.8028 16.3014 10.7934 15.3202 11.1873 14.3935C11.9376 12.6055 14.0291 12.0276 15.4547 13.2269C16.1206 13.7938 17.7619 16.8684 17.987 17.9804C18.109 18.5692 18.109 18.5692 17.9776 18.5692Z" fill="#FFBB55"/>
<path d="M21.2321 2.7059C21.1102 2.55326 20.9414 2.43333 20.857 2.43333C20.7819 2.43333 19.9472 2.86944 19 3.40366C13.654 6.44548 8.11103 8.11358 2.80256 8.27711C1.79902 8.30982 0.832992 8.35343 0.664172 8.38614C0.0451636 8.49517 -0.208067 9.22564 0.195226 9.72716L0.392183 9.98882L2.55871 9.9234C8.38302 9.74896 14.2167 8.00455 19.8065 4.76648C20.4818 4.37399 21.1383 3.94879 21.2603 3.81796C21.5416 3.52359 21.5323 3.04388 21.2321 2.7059Z" fill="#FFBB55"/>
</svg>
